HIERARCHY
ROOT Hips
{
	OFFSET 0.000000 71.427986 0.000000
	CHANNELS 6 Xposition Yposition Zposition Xrotation Yrotation Zrotation
	JOINT Pelvis
	{
		OFFSET 0.000000 0.000000 0.000000
		CHANNELS 3 Xrotation Yrotation Zrotation
		JOINT LeftUpLeg
		{
			OFFSET 6.797100 -2.508499 -1.318700
			CHANNELS 3 Xrotation Yrotation Zrotation
			JOINT LeftLeg
			{
				OFFSET 0.069008 -29.241863 0.690200
				CHANNELS 3 Xrotation Yrotation Zrotation
				JOINT LeftFoot
				{
					OFFSET -0.069008 -29.568123 -0.266800
					CHANNELS 3 Xrotation Yrotation Zrotation
					JOINT LeftToeBase
					{
						OFFSET 3.145500 -8.631000 16.059900
						CHANNELS 3 Xrotation Yrotation Zrotation
						End Site
						{
							OFFSET 0.000000 18.501587 0.000000
						}
					}
				}
			}
			JOINT Left_ShortSleeve
			{
				OFFSET 0.265923 -10.480953 1.153800
				CHANNELS 3 Xrotation Yrotation Zrotation
				End Site
				{
					OFFSET 1.725763 19.823879 0.000000
				}
			}
		}
		JOINT RightUpLeg
		{
			OFFSET -6.797100 -2.508499 -1.318700
			CHANNELS 3 Xrotation Yrotation Zrotation
			JOINT RightLeg
			{
				OFFSET -0.082453 -29.241932 0.688000
				CHANNELS 3 Xrotation Yrotation Zrotation
				JOINT RightFoot
				{
					OFFSET 0.082453 -29.568058 -0.264600
					CHANNELS 3 Xrotation Yrotation Zrotation
					JOINT RightToeBase
					{
						OFFSET -3.115300 -8.682800 16.113400
						CHANNELS 3 Xrotation Yrotation Zrotation
						End Site
						{
							OFFSET 0.000000 18.567114 0.000000
						}
					}
				}
			}
			JOINT Right_ShortSleeve
			{
				OFFSET -0.265923 -10.480953 1.153800
				CHANNELS 3 Xrotation Yrotation Zrotation
				End Site
				{
					OFFSET -1.725766 19.823910 0.000000
				}
			}
		}
	}
	JOINT Spine
	{
		OFFSET 0.000000 13.368103 0.470500
		CHANNELS 3 Xrotation Yrotation Zrotation
		JOINT Spine1
		{
			OFFSET 0.147000 13.837402 0.538800
			CHANNELS 3 Xrotation Yrotation Zrotation
			JOINT Spine2
			{
				OFFSET 0.168000 16.242897 -1.435500
				CHANNELS 3 Xrotation Yrotation Zrotation
				JOINT Neck
				{
					OFFSET 0.217200 18.631500 -1.679100
					CHANNELS 3 Xrotation Yrotation Zrotation
					JOINT Head
					{
						OFFSET 0.000000 6.599396 1.385900
						CHANNELS 3 Xrotation Yrotation Zrotation
						JOINT Hat
						{
							OFFSET -0.532200 27.220596 -10.096100
							CHANNELS 3 Xrotation Yrotation Zrotation
							End Site
							{
								OFFSET 0.000000 22.029861 0.000000
							}
						}
						JOINT HairD
						{
							OFFSET -10.777400 17.437393 -1.325900
							CHANNELS 3 Xrotation Yrotation Zrotation
							JOINT HairD1
							{
								OFFSET -3.290299 -11.051193 1.062200
								CHANNELS 3 Xrotation Yrotation Zrotation
								End Site
								{
									OFFSET 0.000000 11.579437 0.000000
								}
							}
						}
						JOINT HairB
						{
							OFFSET -10.777400 17.437393 1.467900
							CHANNELS 3 Xrotation Yrotation Zrotation
							JOINT HairB1
							{
								OFFSET -1.561200 -12.956299 3.590200
								CHANNELS 3 Xrotation Yrotation Zrotation
								End Site
								{
									OFFSET 0.000000 13.534866 0.000000
								}
							}
						}
						JOINT HairA
						{
							OFFSET 9.713100 17.437393 1.467900
							CHANNELS 3 Xrotation Yrotation Zrotation
							JOINT HairA1
							{
								OFFSET 1.561200 -12.956299 3.590200
								CHANNELS 3 Xrotation Yrotation Zrotation
								End Site
								{
									OFFSET 0.000000 13.534866 0.000000
								}
							}
						}
						JOINT HairC
						{
							OFFSET 9.713100 17.437393 -1.325900
							CHANNELS 3 Xrotation Yrotation Zrotation
							JOINT HairC1
							{
								OFFSET 3.290300 -11.051193 1.062200
								CHANNELS 3 Xrotation Yrotation Zrotation
								End Site
								{
									OFFSET 0.000000 11.579437 0.000000
								}
							}
						}
					}
				}
				JOINT LeftShoulder
				{
					OFFSET 5.101800 15.108002 -2.763700
					CHANNELS 3 Xrotation Yrotation Zrotation
					JOINT LeftArm
					{
						OFFSET 9.825497 2.506317 -1.597400
						CHANNELS 3 Xrotation Yrotation Zrotation
						JOINT LeftForeArm
						{
							OFFSET 21.966244 0.000000 0.000000
							CHANNELS 3 Xrotation Yrotation Zrotation
							JOINT LeftHand
							{
								OFFSET 33.879036 0.000000 0.000000
								CHANNELS 3 Xrotation Yrotation Zrotation
								JOINT LeftHandThumb1
								{
									OFFSET 6.715286 -2.359680 3.363841
									CHANNELS 3 Xrotation Yrotation Zrotation
									JOINT LeftHandThumb2
									{
										OFFSET 2.507072 -1.447464 1.447461
										CHANNELS 3 Xrotation Yrotation Zrotation
										JOINT LeftHandThumb3
										{
											OFFSET 2.898338 -1.673355 1.673357
											CHANNELS 3 Xrotation Yrotation Zrotation
											End Site
											{
												OFFSET -0.295959 3.727692 -0.131651
											}
										}
									}
								}
								JOINT LeftHandIndex1
								{
									OFFSET 14.190811 -0.254547 3.840278
									CHANNELS 3 Xrotation Yrotation Zrotation
									JOINT LeftHandIndex2
									{
										OFFSET 3.551727 0.000000 -0.000000
										CHANNELS 3 Xrotation Yrotation Zrotation
										JOINT LeftHandIndex3
										{
											OFFSET 2.894196 0.000000 0.000000
											CHANNELS 3 Xrotation Yrotation Zrotation
											End Site
											{
												OFFSET -1.000603 2.690872 0.366626
											}
										}
									}
								}
								JOINT LeftHandMiddle1
								{
									OFFSET 13.776489 0.000000 0.000000
									CHANNELS 3 Xrotation Yrotation Zrotation
									JOINT LeftHandMiddle2
									{
										OFFSET 3.438232 0.000000 0.000000
										CHANNELS 3 Xrotation Yrotation Zrotation
										JOINT LeftHandMiddle3
										{
											OFFSET 3.691551 0.000000 0.000000
											CHANNELS 3 Xrotation Yrotation Zrotation
											End Site
											{
												OFFSET -1.082298 3.499527 0.457670
											}
										}
									}
								}
								JOINT LeftHandRing1
								{
									OFFSET 13.966164 -0.268127 -3.067488
									CHANNELS 3 Xrotation Yrotation Zrotation
									JOINT LeftHandRing2
									{
										OFFSET 3.162567 0.000000 0.000000
										CHANNELS 3 Xrotation Yrotation Zrotation
										JOINT LeftHandRing3
										{
											OFFSET 3.324348 0.000000 0.000000
											CHANNELS 3 Xrotation Yrotation Zrotation
											End Site
											{
												OFFSET -0.861900 3.184998 0.405154
											}
										}
									}
								}
								JOINT LeftHandPinky1
								{
									OFFSET 13.131393 -0.168503 -5.746925
									CHANNELS 3 Xrotation Yrotation Zrotation
									JOINT LeftHandPinky2
									{
										OFFSET 2.849182 0.000000 0.000000
										CHANNELS 3 Xrotation Yrotation Zrotation
										JOINT LeftHandPinky3
										{
											OFFSET 2.805038 0.000000 0.000000
											CHANNELS 3 Xrotation Yrotation Zrotation
											End Site
											{
												OFFSET -0.882500 2.642609 0.325652
											}
										}
									}
								}
							}
							JOINT Left_Sleeve
							{
								OFFSET 6.592125 -0.646545 0.805568
								CHANNELS 3 Xrotation Yrotation Zrotation
								End Site
								{
									OFFSET -0.000179 20.275787 -0.000000
								}
							}
						}
					}
				}
				JOINT RightShoulder
				{
					OFFSET -5.731700 15.108002 -2.763700
					CHANNELS 3 Xrotation Yrotation Zrotation
					JOINT RightArm
					{
						OFFSET -9.825497 2.506317 -1.597400
						CHANNELS 3 Xrotation Yrotation Zrotation
						JOINT RightForeArm
						{
							OFFSET -21.966242 0.000000 0.000000
							CHANNELS 3 Xrotation Yrotation Zrotation
							JOINT RightHand
							{
								OFFSET -33.879032 0.000000 0.000000
								CHANNELS 3 Xrotation Yrotation Zrotation
								JOINT RightHandThumb1
								{
									OFFSET -6.715286 -2.359680 3.363841
									CHANNELS 3 Xrotation Yrotation Zrotation
									JOINT RightHandThumb2
									{
										OFFSET -2.507072 -1.447464 1.447461
										CHANNELS 3 Xrotation Yrotation Zrotation
										JOINT RightHandThumb3
										{
											OFFSET -2.898338 -1.673355 1.673357
											CHANNELS 3 Xrotation Yrotation Zrotation
											End Site
											{
												OFFSET 0.295959 3.727692 -0.131651
											}
										}
									}
								}
								JOINT RightHandIndex1
								{
									OFFSET -14.190811 -0.254547 3.840278
									CHANNELS 3 Xrotation Yrotation Zrotation
									JOINT RightHandIndex2
									{
										OFFSET -3.551727 0.000000 -0.000000
										CHANNELS 3 Xrotation Yrotation Zrotation
										JOINT RightHandIndex3
										{
											OFFSET -2.894196 0.000000 0.000000
											CHANNELS 3 Xrotation Yrotation Zrotation
											End Site
											{
												OFFSET 1.000603 2.690872 0.366626
											}
										}
									}
								}
								JOINT RightHandMiddle1
								{
									OFFSET -13.776489 0.000000 0.000000
									CHANNELS 3 Xrotation Yrotation Zrotation
									JOINT RightHandMiddle2
									{
										OFFSET -3.438232 0.000000 0.000000
										CHANNELS 3 Xrotation Yrotation Zrotation
										JOINT RightHandMiddle3
										{
											OFFSET -3.691551 0.000000 0.000000
											CHANNELS 3 Xrotation Yrotation Zrotation
											End Site
											{
												OFFSET 1.082298 3.499527 0.457670
											}
										}
									}
								}
								JOINT RightHandRing1
								{
									OFFSET -13.966164 -0.268127 -3.067488
									CHANNELS 3 Xrotation Yrotation Zrotation
									JOINT RightHandRing2
									{
										OFFSET -3.162567 0.000000 0.000000
										CHANNELS 3 Xrotation Yrotation Zrotation
										JOINT RightHandRing3
										{
											OFFSET -3.324348 0.000000 0.000000
											CHANNELS 3 Xrotation Yrotation Zrotation
											End Site
											{
												OFFSET 0.861900 3.184998 0.405154
											}
										}
									}
								}
								JOINT RightHandPinky1
								{
									OFFSET -13.131393 -0.168503 -5.746925
									CHANNELS 3 Xrotation Yrotation Zrotation
									JOINT RightHandPinky2
									{
										OFFSET -2.849182 0.000000 0.000000
										CHANNELS 3 Xrotation Yrotation Zrotation
										JOINT RightHandPinky3
										{
											OFFSET -2.805038 0.000000 0.000000
											CHANNELS 3 Xrotation Yrotation Zrotation
											End Site
											{
												OFFSET 0.882500 2.642609 0.325652
											}
										}
									}
								}
							}
							JOINT Right_Sleeve
							{
								OFFSET -6.592125 -0.646545 0.805568
								CHANNELS 3 Xrotation Yrotation Zrotation
								End Site
								{
									OFFSET 0.000179 20.275787 -0.000000
								}
							}
						}
					}
				}
				JOINT Bind_Right_JacketString
				{
					OFFSET -3.534800 11.969597 7.200700
					CHANNELS 3 Xrotation Yrotation Zrotation
					JOINT Bind_Right_JacketString1
					{
						OFFSET -0.319900 -6.102600 2.794100
						CHANNELS 3 Xrotation Yrotation Zrotation
						End Site
						{
							OFFSET 0.000000 6.719452 0.000000
						}
					}
				}
				JOINT Bind_Left_JacketString
				{
					OFFSET 2.904800 11.969597 7.200700
					CHANNELS 3 Xrotation Yrotation Zrotation
					JOINT Bind_Left_JacketString1
					{
						OFFSET 0.364800 -5.904503 3.186800
						CHANNELS 3 Xrotation Yrotation Zrotation
						End Site
						{
							OFFSET 0.000000 6.719513 0.000000
						}
					}
				}
				JOINT HairE
				{
					OFFSET 5.915200 17.612701 -11.592200
					CHANNELS 3 Xrotation Yrotation Zrotation
					JOINT HairE1
					{
						OFFSET 0.289200 -7.171898 -1.284500
						CHANNELS 3 Xrotation Yrotation Zrotation
						End Site
						{
							OFFSET 0.000000 7.291756 0.000000
						}
					}
				}
				JOINT HairF
				{
					OFFSET -0.864800 17.612701 -11.592200
					CHANNELS 3 Xrotation Yrotation Zrotation
					JOINT HairF1
					{
						OFFSET 0.000000 -14.087097 -2.127501
						CHANNELS 3 Xrotation Yrotation Zrotation
						End Site
						{
							OFFSET 0.000000 14.246841 0.000000
						}
					}
				}
				JOINT HairG
				{
					OFFSET -8.087700 17.612701 -11.592200
					CHANNELS 3 Xrotation Yrotation Zrotation
					JOINT HairG1
					{
						OFFSET -0.293600 -6.081398 -0.910100
						CHANNELS 3 Xrotation Yrotation Zrotation
						End Site
						{
							OFFSET 0.000000 6.156120 0.000000
						}
					}
				}
			}
		}
	}
	JOINT Pouch
	{
		OFFSET 0.000000 4.394501 10.847300
		CHANNELS 3 Xrotation Yrotation Zrotation
		End Site
		{
			OFFSET 0.000000 21.880577 0.000000
		}
	}
	JOINT Bag
	{
		OFFSET -13.229000 4.813004 -0.593300
		CHANNELS 3 Xrotation Yrotation Zrotation
		End Site
		{
			OFFSET 0.000000 21.880577 0.000000
		}
	}
	JOINT OccupyGuyFacialAnim_Joint
	{
		OFFSET 1.000000 -70.206398 -1.655000
		CHANNELS 3 Xrotation Yrotation Zrotation
		End Site
		{
			OFFSET 0.000000 21.880577 0.000000
		}
	}
}
MOTION
Frames: 4
Frame Time: 0.033333
-83.273590 61.731735 0.645651 -6.268739 -162.425997 -11.956612 -0.000000 -0.000001 0.000000 -47.986556 35.703666 32.872734 80.224636 -41.455167 -12.264937 -2.935994 2.708395 2.359582 0.000000 0.000000 0.000001 0.000001 -0.000002 -0.000002 -45.282139 -3.654898 22.425543 45.931509 -23.843014 3.158757 -9.089654 2.324856 -10.113353 0.000000 0.000000 0.000000 -0.000000 -0.000002 -0.000000 -1.020377 -1.591188 0.628241 -2.085242 -3.477217 -0.178983 -2.085241 -3.477219 -0.178979 2.685981 18.366631 2.154716 9.049383 39.822370 -23.856838 0.000002 -0.000001 -0.000000 0.000002 -0.000001 -0.000000 0.000002 -0.000001 0.000000 0.000002 -0.000001 -0.000001 -0.000000 -0.000001 -0.000001 0.000002 -0.000001 -0.000001 -0.000000 -0.000001 -0.000001 0.000002 -0.000001 -0.000000 0.000002 -0.000001 -0.000000 4.268776 -9.212003 -19.186949 1.221650 4.823037 -34.060521 43.951161 -16.368967 -10.579455 34.441936 -9.422152 14.365694 -6.061244 -1.224081 8.867735 2.135652 6.288852 2.125421 0.000000 0.000001 -0.000002 -0.038432 -0.826151 -9.168492 0.046296 0.719055 -17.286124 0.000001 0.000000 -0.000002 -0.166544 0.526696 -13.264664 -0.094309 -0.398764 -10.919369 0.000001 0.000000 -0.000001 -1.014058 7.505397 -17.831710 -0.128808 -1.658838 -13.526140 -0.000001 0.000000 -0.000003 -1.033293 13.398141 -13.250859 -0.505835 -5.470004 -22.994337 -0.000001 0.000000 -0.000001 -0.000002 -0.000000 -0.000000 0.916013 -2.437455 15.765350 8.360638 -21.251585 38.246829 38.881501 24.930165 13.252190 32.676277 7.724626 0.112422 -11.704811 6.638684 13.043685 1.802592 -5.540929 -2.039495 -0.000000 -0.000001 -0.000000 -0.373803 6.502812 17.280889 0.120531 -1.119644 16.859803 0.000001 0.000000 -0.000003 -1.298080 -2.211923 25.241452 -0.475618 1.409780 25.384533 0.000000 0.000000 -0.000001 2.763600 -11.521594 33.593148 -0.410969 2.673208 22.712814 0.000002 0.000001 0.000000 3.769191 -20.157007 22.609866 -0.683196 6.548113 20.612734 0.000001 0.000001 0.000001 0.000001 -0.000000 0.000002 -0.000000 -0.000000 0.000001 -0.000000 -0.000001 0.000001 -0.000000 -0.000000 0.000001 -0.000000 -0.000000 0.000001 -0.000000 -0.000000 0.000001 -0.000000 -0.000001 0.000001 -0.000000 -0.000000 0.000001 -0.000000 -0.000000 0.000001 -0.000000 -0.000000 0.000001 -0.000000 -0.000001 0.000001 -0.000000 -0.000001 0.000000 -0.000000 -0.000001 0.000000 -0.000000 -0.000001 0.000000 
-85.573792 61.617836 0.720582 -5.694900 -162.399741 -11.734992 0.000000 0.000000 0.000001 -51.462877 30.831204 29.882505 90.139448 -21.878459 -7.390895 0.970690 2.442009 4.278782 0.000001 -0.000000 -0.000003 0.000001 0.000001 0.000001 -45.446730 -4.471182 20.709434 49.117130 -21.960598 1.569724 -10.947547 1.625016 -7.101852 0.000000 0.000000 0.000000 0.000001 -0.000001 -0.000001 -1.054359 -1.529268 0.599181 -2.156063 -3.345020 -0.324011 -2.156064 -3.345019 -0.324009 4.031491 18.157863 1.331891 8.404613 39.719958 -23.682773 -0.000000 0.000000 0.000000 -0.000000 0.000000 0.000000 -0.000000 0.000000 0.000001 -0.000000 0.000000 0.000002 -0.000002 -0.000000 -0.000001 -0.000000 0.000000 0.000002 -0.000002 -0.000000 -0.000001 -0.000000 0.000000 0.000000 -0.000000 0.000000 0.000000 4.354531 -8.939019 -19.530552 1.276877 5.825829 -33.177705 43.814950 -16.747059 -10.377455 34.332960 -8.916808 14.853307 -6.410433 -1.244282 9.495565 2.215247 6.464828 2.145564 -0.000001 -0.000000 0.000001 -0.035374 -0.806161 -8.965459 0.052367 0.738824 -17.116606 0.000003 0.000001 -0.000003 -0.157418 0.566220 -12.852532 -0.090758 -0.380343 -10.749461 -0.000000 0.000001 -0.000001 -0.630825 7.468262 -17.364291 -0.126458 -1.648848 -13.355523 0.000001 0.000000 -0.000001 -0.646133 13.396514 -12.530474 -0.504444 -5.466640 -22.823376 0.000001 -0.000001 0.000003 0.000002 -0.000000 0.000001 0.899209 -2.580590 15.336628 8.839274 -20.854861 39.426198 38.824028 24.717370 12.494728 32.711074 8.651730 -1.160978 -11.704812 6.638680 13.043681 1.802596 -5.540926 -2.039495 -0.000001 -0.000001 -0.000000 -0.373801 6.502814 17.280889 0.120529 -1.119642 16.859794 -0.000001 -0.000001 0.000002 -1.329590 -2.144744 26.227416 -0.536660 1.534029 26.932986 -0.000000 0.000001 -0.000002 2.512604 -11.137268 34.588986 -0.455710 2.776375 24.019632 -0.000004 -0.000000 -0.000001 3.616129 -19.800041 23.502609 -0.699720 6.596428 21.278310 -0.000001 0.000001 -0.000001 -0.000001 -0.000001 -0.000001 -0.000000 0.000000 -0.000001 -0.000000 -0.000001 -0.000000 -0.000000 0.000000 -0.000001 -0.000000 0.000000 -0.000001 -0.000000 0.000000 -0.000001 -0.000000 -0.000001 0.000000 -0.000000 0.000000 -0.000001 -0.000000 0.000000 -0.000001 -0.000000 0.000000 -0.000001 -0.000000 -0.000001 0.000000 0.000000 0.000000 0.000001 0.000000 0.000000 0.000001 0.000000 0.000000 0.000001 
-87.780914 61.658623 0.670525 -5.284166 -162.591437 -11.291933 -0.000001 -0.000001 -0.000000 -53.390995 23.355685 25.956543 93.637051 -0.327751 -4.490104 7.759721 1.551845 1.598248 0.000002 -0.000002 0.000000 -0.000000 -0.000002 -0.000001 -45.264767 -4.537083 19.160711 51.130397 -20.418849 -0.113559 -12.358456 0.921046 -4.279417 0.000000 0.000000 -0.000000 0.000006 -0.000000 -0.000003 -1.094002 -1.477918 0.575765 -2.240743 -3.235669 -0.523101 -2.240741 -3.235667 -0.523104 4.743901 18.190522 0.410896 7.921178 39.727276 -23.462408 -0.000001 0.000001 -0.000001 -0.000001 0.000001 -0.000001 -0.000001 0.000001 -0.000001 -0.000001 0.000001 0.000000 -0.000001 0.000000 0.000000 -0.000001 0.000001 0.000000 -0.000001 0.000000 0.000000 -0.000001 0.000001 -0.000001 -0.000001 0.000001 -0.000001 4.402996 -8.848862 -19.837407 1.289372 6.868670 -32.512001 43.765079 -16.658854 -10.331650 34.647265 -8.732847 14.810391 -6.674827 -1.261905 9.969993 2.275389 6.597878 2.160640 0.000002 -0.000000 -0.000000 -0.033076 -0.791049 -8.811922 0.056960 0.753773 -16.988403 -0.000000 0.000000 -0.000000 -0.150678 0.596120 -12.540841 -0.088798 -0.369990 -10.620738 0.000002 0.000000 0.000001 -0.340483 7.444455 -17.011093 -0.123924 -1.638192 -13.226741 -0.000001 -0.000000 -0.000000 -0.353105 13.401874 -11.986141 -0.503423 -5.464071 -22.694113 0.000000 0.000000 0.000001 0.000004 -0.000000 0.000000 0.870196 -2.606027 14.853901 9.277591 -20.600078 40.668166 38.635467 24.366500 11.690676 32.984220 9.377298 -2.681918 -11.704814 6.638682 13.043681 1.802588 -5.540928 -2.039495 -0.000004 -0.000001 -0.000000 -0.373802 6.502812 17.280891 0.120528 -1.119642 16.859798 -0.000000 -0.000000 -0.000002 -1.353093 -2.092975 26.997841 -0.586690 1.629943 28.142977 -0.000002 0.000000 -0.000004 2.308483 -10.843745 35.369643 -0.494219 2.856279 25.046457 0.000001 -0.000002 0.000005 3.489574 -19.525373 24.201467 -0.713639 6.634222 21.804037 0.000004 0.000001 -0.000001 -0.000002 -0.000000 -0.000001 -0.000000 0.000000 -0.000000 -0.000000 0.000000 -0.000001 -0.000000 0.000000 -0.000001 -0.000000 0.000000 -0.000001 -0.000000 0.000000 -0.000000 -0.000000 0.000000 -0.000000 -0.000000 0.000000 -0.000001 -0.000000 0.000000 -0.000001 -0.000000 0.000000 -0.000000 -0.000000 0.000000 -0.000000 -0.000001 -0.000001 -0.000000 -0.000001 -0.000001 -0.000000 -0.000001 -0.000001 -0.000000 
-89.975235 61.685097 0.594377 -4.873242 -162.907047 -10.837223 -0.000000 0.000000 0.000000 -54.856319 16.096656 21.697221 98.759372 15.512721 -2.482007 3.957373 0.548104 6.325196 0.000001 -0.000001 0.000003 -0.000000 -0.000002 -0.000001 -44.999906 -4.148341 17.710447 52.815978 -19.248716 -1.627766 -13.598762 0.318899 -1.501872 -0.000000 0.000000 0.000000 -0.000004 0.000000 0.000001 -1.129041 -1.407082 0.631344 -2.318734 -3.096386 -0.710345 -2.318734 -3.096397 -0.710345 5.166392 18.276516 -0.115999 7.698613 39.826775 -23.416008 -0.000000 0.000001 0.000001 -0.000000 0.000001 0.000001 -0.000000 0.000001 0.000001 -0.000000 0.000001 0.000002 -0.000000 -0.000000 -0.000001 -0.000000 0.000001 0.000002 -0.000000 -0.000000 -0.000001 -0.000000 0.000001 0.000001 -0.000000 0.000001 0.000001 4.408525 -8.882385 -19.964761 1.303617 7.768122 -32.111718 43.872050 -16.266119 -10.423833 35.307836 -8.841530 14.683927 -6.841532 -1.274373 10.270456 2.314633 6.681764 2.167440 0.000002 -0.000000 -0.000001 -0.031594 -0.781493 -8.714761 0.059861 0.763249 -16.907295 0.000000 0.000002 -0.000003 -0.147182 0.611938 -12.343338 -0.087577 -0.363436 -10.539253 0.000000 -0.000000 0.000001 -0.156501 7.431286 -16.787715 -0.122336 -1.631440 -13.145258 -0.000001 0.000000 0.000000 -0.167201 13.409820 -11.642168 -0.502791 -5.462439 -22.612282 -0.000001 -0.000001 0.000003 -0.000002 -0.000000 -0.000001 0.841226 -2.474841 14.500415 9.642253 -20.635685 41.348230 38.521519 24.470835 11.322112 33.089890 9.697687 -3.184685 -11.704816 6.638684 13.043683 1.802588 -5.540930 -2.039496 0.000002 0.000000 -0.000000 -0.373803 6.502812 17.280887 0.120527 -1.119642 16.859798 -0.000001 0.000001 -0.000001 -1.367414 -2.065217 27.499677 -0.617582 1.692313 28.930520 -0.000000 -0.000001 0.000003 2.171861 -10.655932 35.879131 -0.521809 2.907740 25.717841 0.000003 0.000003 -0.000000 3.403957 -19.348657 24.657096 -0.723201 6.658866 22.149241 -0.000000 0.000001 -0.000006 -0.000001 -0.000000 -0.000000 0.000000 -0.000000 0.000000 0.000000 -0.000000 0.000000 0.000000 -0.000000 -0.000000 0.000000 -0.000000 -0.000000 0.000000 -0.000000 0.000000 0.000000 -0.000000 0.000000 0.000000 -0.000000 -0.000000 0.000000 -0.000000 -0.000000 0.000000 -0.000000 0.000000 0.000000 -0.000000 0.000000 -0.000000 0.000000 0.000000 -0.000000 0.000000 0.000000 -0.000000 0.000000 0.000000 
